<svg xmlns="http://www.w3.org/2000/svg" viewBox="0 0 32 32"><path d="M32 16c0-8.8-7.2-16-16-16S0 7.2 0 16c0 4.7 2 8.9 5.2 11.8l.5.4.1.1c.3.2.6.4.9.7.1.1.2.1.3.2.3.2.6.4 1 .6.1 0 .1.1.2.1.4.2.7.4 1.1.6h.1c1.2.6 2.5 1 3.9 1.2h.1c.4.1.8.1 1.3.2h.2c.4 0 .9.1 1.3.1s.9 0 1.3-.1h.2c.4 0 .9-.1 1.3-.2h.1c1.3-.2 2.6-.6 3.8-1.2 0 0 .1 0 .1-.1.4-.2.7-.4 1.1-.5.1 0 .2-.1.3-.1l.9-.6c.1-.1.2-.2.3-.2.3-.2.5-.4.7-.6.1 0 .1-.1.2-.1l.5-.4c3-3 5-7.2 5-11.9zM1.2 16C1.2 7.8 7.8 1.2 16 1.2S30.8 7.8 30.8 16c0 4.4-1.9 8.4-5 11.1-.2-.1-.3-.2-.5-.3l-4.9-2.5c-.4-.2-.7-.7-.7-1.2v-1.7c.1-.1.2-.3.4-.5.6-.9 1.1-1.9 1.5-3 .7-.4 1.2-1.1 1.2-1.9v-2c0-.5-.2-1-.5-1.4V9.9c0-.3.1-2-1.1-3.4-1.1-1.2-2.8-1.8-5.2-1.8s-4.1.6-5.2 1.8C9.6 7.9 9.7 9.6 9.7 9.9v2.7c-.3.4-.5.9-.5 1.4v2.1c0 .6.3 1.2.8 1.6.5 1.8 1.4 3.2 1.8 3.7v1.7c0 .5-.3.9-.7 1.1l-4.6 2.5c-.1.1-.3.2-.4.3-3-2.7-4.9-6.6-4.9-11z" fill="#ced0fb"/></svg>